<svg width="45" height="44" viewBox="0 0 45 44" fill="none" xmlns="http://www.w3.org/2000/svg">
<circle cx="22.7005" cy="22" r="22" fill="#F2F8FF"/>
<path d="M22.7005 11.4399C21.6411 11.4399 20.7805 12.3006 20.7805 13.3599C20.7805 14.2524 21.3955 14.9968 22.2205 15.2124V16.7199H17.9155C15.7892 16.7199 14.0605 18.4487 14.0605 20.5749V22.4799H11.6605V28.2399H14.0605V32.5599H31.3405V28.2399H33.7405V22.4799H31.3405V20.5749C31.3405 18.4487 29.6117 16.7199 27.4855 16.7199H23.1805V15.2124C24.0073 14.9968 24.6205 14.2524 24.6205 13.3599C24.6205 12.3006 23.7598 11.4399 22.7005 11.4399ZM22.7005 12.3999C23.2292 12.3999 23.6605 12.8312 23.6605 13.3599C23.6605 13.8887 23.2292 14.3199 22.7005 14.3199C22.1717 14.3199 21.7405 13.8887 21.7405 13.3599C21.7405 12.8312 22.1717 12.3999 22.7005 12.3999ZM17.9155 17.6799H27.4855C29.0811 17.6799 30.3805 18.9793 30.3805 20.5749V31.5999H27.5005V27.7599H17.9005V31.5999H15.0205V20.5749C15.0205 18.9793 16.3198 17.6799 17.9155 17.6799ZM19.5805 20.5599C18.3898 20.5599 17.4205 21.5293 17.4205 22.7199C17.4205 23.9106 18.3898 24.8799 19.5805 24.8799C20.7711 24.8799 21.7405 23.9106 21.7405 22.7199C21.7405 21.5293 20.7711 20.5599 19.5805 20.5599ZM25.8205 20.5599C24.6298 20.5599 23.6605 21.5293 23.6605 22.7199C23.6605 23.9106 24.6298 24.8799 25.8205 24.8799C27.0111 24.8799 27.9805 23.9106 27.9805 22.7199C27.9805 21.5293 27.0111 20.5599 25.8205 20.5599ZM19.5805 21.5199C20.2423 21.5199 20.7805 22.0581 20.7805 22.7199C20.7805 23.3818 20.2423 23.9199 19.5805 23.9199C18.9186 23.9199 18.3805 23.3818 18.3805 22.7199C18.3805 22.0581 18.9186 21.5199 19.5805 21.5199ZM25.8205 21.5199C26.4823 21.5199 27.0205 22.0581 27.0205 22.7199C27.0205 23.3818 26.4823 23.9199 25.8205 23.9199C25.1586 23.9199 24.6205 23.3818 24.6205 22.7199C24.6205 22.0581 25.1586 21.5199 25.8205 21.5199ZM12.6205 23.4399H14.0605V27.2799H12.6205V23.4399ZM31.3405 23.4399H32.7805V27.2799H31.3405V23.4399ZM18.8605 28.7199H20.7805V31.5999H18.8605V28.7199ZM21.7405 28.7199H23.6605V31.5999H21.7405V28.7199ZM24.6205 28.7199H26.5405V31.5999H24.6205V28.7199Z" fill="#0070F0"/>
</svg>
