<svg width="33" height="32" viewBox="0 0 33 32" fill="none" xmlns="http://www.w3.org/2000/svg">
<path fill-rule="evenodd" clip-rule="evenodd" d="M29.6511 16C29.6511 20.0178 27.874 23.6205 25.0629 26.0651C22.7219 28.1008 19.6638 29.3333 16.3178 29.3333C12.9718 29.3333 9.9137 28.1008 7.57267 26.0651C4.76158 23.6205 2.98445 20.0178 2.98445 16C2.98445 8.63616 8.95398 2.66663 16.3178 2.66663C23.6816 2.66663 29.6511 8.63616 29.6511 16ZM20.3178 12C20.3178 9.79082 18.5269 7.99996 16.3178 7.99996C14.1086 7.99996 12.3178 9.79082 12.3178 12C12.3178 14.2091 14.1086 16 16.3178 16C18.5269 16 20.3178 14.2091 20.3178 12ZM16.3178 18.6666C18.6014 18.6666 20.1032 19.8888 21.162 21.2473C21.9521 22.2608 21.6802 23.7476 20.5341 24.3289C19.2676 24.9713 17.835 25.3333 16.3178 25.3333C14.8006 25.3333 13.3679 24.9713 12.1015 24.3289C10.9554 23.7476 10.6835 22.2608 11.4735 21.2473C12.5324 19.8888 14.0341 18.6666 16.3178 18.6666Z" fill="#100F0D"/>
</svg>
