<svg width="21" height="20" viewBox="0 0 21 20" fill="none" xmlns="http://www.w3.org/2000/svg">
<path fill-rule="evenodd" clip-rule="evenodd" d="M7.33686 6.66675H14.0035C14.4635 6.66675 14.8369 6.29425 14.8369 5.83341V2.50008C14.8369 2.03925 14.4635 1.66675 14.0035 1.66675H7.33686C6.87686 1.66675 6.50353 2.03925 6.50353 2.50008V5.83341C6.50353 6.29425 6.87686 6.66675 7.33686 6.66675ZM15.6702 5.83342V3.33341C17.0485 3.33341 18.1702 4.45508 18.1702 5.83342V15.8334C18.1702 17.2117 17.0485 18.3334 15.6702 18.3334H5.6702C4.29186 18.3334 3.1702 17.2117 3.1702 15.8334V5.83342C3.1702 4.45508 4.29186 3.33341 5.6702 3.33341V5.83342C5.6702 6.75258 6.4177 7.50008 7.33686 7.50008H14.0035C14.9227 7.50008 15.6702 6.75258 15.6702 5.83342Z" fill="#100F0D"/>
<mask id="mask0_4_172" style="mask-type:luminance" maskUnits="userSpaceOnUse" x="3" y="1" width="16" height="18">
<path fill-rule="evenodd" clip-rule="evenodd" d="M7.33686 6.66675H14.0035C14.4635 6.66675 14.8369 6.29425 14.8369 5.83341V2.50008C14.8369 2.03925 14.4635 1.66675 14.0035 1.66675H7.33686C6.87686 1.66675 6.50353 2.03925 6.50353 2.50008V5.83341C6.50353 6.29425 6.87686 6.66675 7.33686 6.66675ZM15.6702 5.83342V3.33341C17.0485 3.33341 18.1702 4.45508 18.1702 5.83342V15.8334C18.1702 17.2117 17.0485 18.3334 15.6702 18.3334H5.6702C4.29186 18.3334 3.1702 17.2117 3.1702 15.8334V5.83342C3.1702 4.45508 4.29186 3.33341 5.6702 3.33341V5.83342C5.6702 6.75258 6.4177 7.50008 7.33686 7.50008H14.0035C14.9227 7.50008 15.6702 6.75258 15.6702 5.83342Z" fill="white"/>
</mask>
<g mask="url(#mask0_4_172)">
<rect x="0.670197" width="20" height="20" fill="#100F0D"/>
</g>
</svg>
