<svg width="25" height="24" viewBox="0 0 25 24" fill="none" xmlns="http://www.w3.org/2000/svg">
<path fill-rule="evenodd" clip-rule="evenodd" d="M16.6888 10.6787L13.9938 7.98367L15.9418 6.03467L18.6358 8.72867L16.6888 10.6787ZM20.0738 7.33767L20.0728 7.33667L17.3348 4.59867C16.5938 3.85967 15.3208 3.82467 14.6188 4.52967L5.6228 13.5257C5.2968 13.8507 5.0948 14.2827 5.0528 14.7397L4.6738 18.9097C4.6478 19.2047 4.7528 19.4967 4.9628 19.7067C5.1518 19.8957 5.4068 19.9997 5.6698 19.9997C5.7008 19.9997 5.7308 19.9987 5.7608 19.9957L9.9308 19.6167C10.3888 19.5747 10.8198 19.3737 11.1448 19.0487L20.1418 10.0517C20.8698 9.32167 20.8388 8.10367 20.0738 7.33767V7.33767Z" fill="#100F0D"/>
<mask id="mask0_4_112" style="mask-type:luminance" maskUnits="userSpaceOnUse" x="4" y="4" width="17" height="16">
<path fill-rule="evenodd" clip-rule="evenodd" d="M16.6888 10.6787L13.9938 7.98367L15.9418 6.03467L18.6358 8.72867L16.6888 10.6787ZM20.0738 7.33767L20.0728 7.33667L17.3348 4.59867C16.5938 3.85967 15.3208 3.82467 14.6188 4.52967L5.6228 13.5257C5.2968 13.8507 5.0948 14.2827 5.0528 14.7397L4.6738 18.9097C4.6478 19.2047 4.7528 19.4967 4.9628 19.7067C5.1518 19.8957 5.4068 19.9997 5.6698 19.9997C5.7008 19.9997 5.7308 19.9987 5.7608 19.9957L9.9308 19.6167C10.3888 19.5747 10.8198 19.3737 11.1448 19.0487L20.1418 10.0517C20.8698 9.32167 20.8388 8.10367 20.0738 7.33767V7.33767Z" fill="white"/>
</mask>
<g mask="url(#mask0_4_112)">
<rect x="0.670197" width="24" height="24" fill="#100F0D"/>
</g>
</svg>
