<svg width="25" height="24" viewBox="0 0 25 24" fill="none" xmlns="http://www.w3.org/2000/svg">
<path d="M23.2161 14.6747L22.0911 5.67469C22.0118 5.03983 21.7034 4.45579 21.2238 4.03232C20.7442 3.60884 20.1265 3.37509 19.4867 3.375H3.36169C2.86441 3.375 2.3875 3.57254 2.03587 3.92417C1.68424 4.27581 1.48669 4.75272 1.48669 5.25V13.5C1.48669 13.7462 1.53519 13.99 1.62942 14.2175C1.72365 14.445 1.86176 14.6517 2.03587 14.8258C2.20998 14.9999 2.41668 15.138 2.64416 15.2323C2.87165 15.3265 3.11547 15.375 3.36169 15.375H7.16607L10.6058 22.2534C10.6992 22.4402 10.8428 22.5973 11.0205 22.707C11.1981 22.8168 11.4029 22.875 11.6117 22.875C12.7053 22.8738 13.7538 22.4388 14.5271 21.6654C15.3005 20.8921 15.7355 19.8436 15.7367 18.75V17.625H20.6117C20.9838 17.6249 21.3517 17.5458 21.6909 17.3927C22.0302 17.2396 22.333 17.0162 22.5792 16.7372C22.8255 16.4582 23.0097 16.13 23.1195 15.7744C23.2293 15.4188 23.2622 15.044 23.2161 14.6747ZM6.73669 13.125H3.73669V5.625H6.73669V13.125ZM20.8929 15.2484C20.8577 15.2883 20.8144 15.3202 20.7659 15.342C20.7174 15.3638 20.6649 15.375 20.6117 15.375H14.6117C14.3133 15.375 14.0272 15.4935 13.8162 15.7045C13.6052 15.9155 13.4867 16.2016 13.4867 16.5V18.75C13.4867 19.1351 13.3681 19.5109 13.147 19.8262C12.9259 20.1416 12.6131 20.3812 12.2511 20.5125L8.98669 13.9847V5.625H19.4867C19.5785 5.62428 19.6675 5.65729 19.7366 5.71777C19.8057 5.77825 19.8502 5.862 19.8617 5.95312L20.9867 14.9531C20.993 15.0062 20.9879 15.06 20.9717 15.1109C20.9556 15.1618 20.9287 15.2087 20.8929 15.2484Z" fill="#100F0D"/>
</svg>
