<svg width="25" height="24" viewBox="0 0 25 24" fill="none" xmlns="http://www.w3.org/2000/svg">
<path d="M22.5804 7.26281C22.334 6.98366 22.031 6.76013 21.6916 6.60706C21.3522 6.45399 20.984 6.37489 20.6117 6.375H15.7367V5.25C15.7355 4.15636 15.3005 3.10787 14.5271 2.33455C13.7538 1.56124 12.7053 1.12624 11.6117 1.125C11.4029 1.12502 11.1981 1.18318 11.0205 1.29296C10.8428 1.40273 10.6992 1.5598 10.6058 1.74656L7.16607 8.625H3.36169C2.86441 8.625 2.3875 8.82254 2.03587 9.17417C1.68424 9.52581 1.48669 10.0027 1.48669 10.5V18.75C1.48669 19.2473 1.68424 19.7242 2.03587 20.0758C2.3875 20.4275 2.86441 20.625 3.36169 20.625H19.4867C20.1265 20.6249 20.7442 20.3912 21.2238 19.9677C21.7034 19.5442 22.0118 18.9602 22.0911 18.3253L23.2161 9.32531C23.2623 8.95612 23.2296 8.5813 23.12 8.22572C23.0104 7.87013 22.8265 7.54191 22.5804 7.26281ZM3.73669 10.875H6.73669V18.375H3.73669V10.875ZM20.9867 9.04688L19.8617 18.0469C19.8502 18.138 19.8057 18.2217 19.7366 18.2822C19.6675 18.3427 19.5785 18.3757 19.4867 18.375H8.98669V10.0153L12.2511 3.4875C12.6131 3.61882 12.9259 3.85844 13.147 4.17378C13.3681 4.48912 13.4867 4.86489 13.4867 5.25V7.5C13.4867 7.79837 13.6052 8.08452 13.8162 8.2955C14.0272 8.50647 14.3133 8.625 14.6117 8.625H20.6117C20.6651 8.62458 20.7181 8.63559 20.7669 8.6573C20.8158 8.679 20.8594 8.7109 20.8949 8.75085C20.9304 8.7908 20.957 8.83788 20.9728 8.88894C20.9886 8.93999 20.9934 8.99384 20.9867 9.04688Z" fill="#100F0D"/>
</svg>
