<svg width="33" height="38" viewBox="0 0 33 38" fill="none" xmlns="http://www.w3.org/2000/svg">
<g clip-path="url(#clip0_4_131)">
<path d="M22.9451 17.4167C22.9451 21.7867 20.0086 25.3334 16.3904 25.3334C12.7722 25.3334 9.83574 21.7867 9.83574 17.4167H7.21387C7.21387 23.0059 10.6354 27.5976 15.0795 28.3734V33.2501H17.7014V28.3734C22.1454 27.5976 25.567 23.0059 25.567 17.4167H22.9451V17.4167Z" fill="black"/>
<path d="M16.3904 22.1667C18.5666 22.1667 20.3232 20.0451 20.3232 17.4167V7.91675C20.3232 5.28841 18.5666 3.16675 16.3904 3.16675C14.2143 3.16675 12.4576 5.28841 12.4576 7.91675V17.4167C12.4576 20.0451 14.2143 22.1667 16.3904 22.1667ZM15.0795 7.91675C15.0795 7.04591 15.6694 6.33341 16.3904 6.33341C17.1114 6.33341 17.7014 7.04591 17.7014 7.91675V17.4167C17.7014 18.2876 17.1114 19.0001 16.3904 19.0001C15.6694 19.0001 15.0795 18.2876 15.0795 17.4167V7.91675Z" fill="black"/>
<path d="M16.3904 22.1667C18.5666 22.1667 20.3232 20.0451 20.3232 17.4167V7.91675C20.3232 5.28841 18.5666 3.16675 16.3904 3.16675C14.2143 3.16675 12.4576 5.28841 12.4576 7.91675V17.4167C12.4576 20.0451 14.2143 22.1667 16.3904 22.1667Z" fill="black"/>
</g>
<defs>
<clipPath id="clip0_4_131">
<rect width="31.4625" height="38" fill="white" transform="translate(0.65918)"/>
</clipPath>
</defs>
</svg>
