<svg width="50" height="56" viewBox="0 0 50 56" fill="none" xmlns="http://www.w3.org/2000/svg">
<path d="M44.0256 18.124L28.3253 8.3157C17.779 1.7157 13.4504 7.12403 18.7328 20.3011L20.3285 24.2886C20.787 25.4574 20.787 26.8094 20.3285 27.9782L18.7328 31.9428C13.4504 45.1199 17.7607 50.5282 28.3253 43.9282L44.0256 34.1199C51.0687 29.7199 51.0687 22.524 44.0256 18.124ZM38.1013 27.8407H28.1969C27.4449 27.8407 26.8213 27.0615 26.8213 26.1219C26.8213 25.1824 27.4449 24.4032 28.1969 24.4032H38.1013C38.8533 24.4032 39.4769 25.1824 39.4769 26.1219C39.4769 27.0615 38.8533 27.8407 38.1013 27.8407Z" fill="#100F0D"/>
</svg>
