<svg width="27" height="27" viewBox="0 0 27 27" fill="none" xmlns="http://www.w3.org/2000/svg">
<path fill-rule="evenodd" clip-rule="evenodd" d="M26.6667 13.3333C26.6667 17.3512 24.8895 20.9539 22.0784 23.3984C19.7374 25.4342 16.6793 26.6667 13.3333 26.6667C9.98736 26.6667 6.92925 25.4342 4.58822 23.3984C1.77713 20.9539 0 17.3512 0 13.3333C0 5.96954 5.96954 0 13.3333 0C20.6971 0 26.6667 5.96954 26.6667 13.3333ZM17.3333 9.33333C17.3333 7.12419 15.5425 5.33333 13.3333 5.33333C11.1242 5.33333 9.33333 7.12419 9.33333 9.33333C9.33333 11.5425 11.1242 13.3333 13.3333 13.3333C15.5425 13.3333 17.3333 11.5425 17.3333 9.33333ZM13.3333 16C15.617 16 17.1187 17.2222 18.1776 18.5806C18.9676 19.5942 18.6957 21.081 17.5496 21.6623C16.2832 22.3047 14.8505 22.6667 13.3333 22.6667C11.8161 22.6667 10.3835 22.3047 9.11705 21.6623C7.97096 21.081 7.69903 19.5942 8.48907 18.5806C9.54795 17.2222 11.0497 16 13.3333 16Z" fill="#100F0D"/>
</svg>
