<svg width="34" height="42" viewBox="0 0 34 42" fill="none" xmlns="http://www.w3.org/2000/svg">
<path d="M28.0256 13.124L12.3253 3.3157C1.77902 -3.2843 -2.54956 2.12403 2.73277 15.3011L4.32847 19.2886C4.787 20.4574 4.787 21.8094 4.32847 22.9782L2.73277 26.9428C-2.54956 40.1199 1.76067 45.5282 12.3253 38.9282L28.0256 29.1199C35.0687 24.7199 35.0687 17.524 28.0256 13.124ZM22.1013 22.8407H12.1969C11.4449 22.8407 10.8213 22.0615 10.8213 21.1219C10.8213 20.1824 11.4449 19.4032 12.1969 19.4032H22.1013C22.8533 19.4032 23.4769 20.1824 23.4769 21.1219C23.4769 22.0615 22.8533 22.8407 22.1013 22.8407Z" fill="#100F0D"/>
</svg>
